<?xml version="1.0" encoding="UTF-8"?>
<svg width="752pt" height="752pt" version="1.1" viewBox="0 0 752 752" xmlns="http://www.w3.org/2000/svg">
 <g>
  <path d="m211.04 397.71s1.1836-18.152 13.223-27.43c0 0 7.1055-4.9336 15.391 4.9336 0 0 13.223 12.824 14.602 48.148 0 0-0.98438 5.3281 3.75 5.3281 0 0 4.1445 0.78516 7.6953-2.5664 0 0 1.1836 0.19531 0.98438-5.3281 0 0-0.98828-36.898-16.773-52.094 0 0-12.629-12.43-26.641-6.3125 0 0-19.336 4.9336-24.469 36.109 0 0-0.17578 1.5586-0.097656 4.9648 0 0-0.074219 2.2227 2.8125 2.2227 0 0 5.4023 0.29688 8.7344-3.3281 0 0 0.83984-0.24609 0.81641-2.4453-0.003906-0.007812-0.125-0.99609-0.027344-2.2031z"/>
  <path d="m230.67 370.82s5.4727 1.0391 9.9883 7.9922c0 0-0.14844 0.81641-0.074218 2.293 0 0 0.37109 2.2227-0.59375 3.2578 0 0-2.9609 4.2891-9.918 3.3281 0 0-1.6289 0.074219-1.6992-2.2227 0 0.003906-0.36719-6.7305 2.2969-14.648z"/>
  <path d="m235.7 359.72s5.625 0.89062 9.4727 3.4062c0 0 5.0352-9.918 11.395-11.547 0 0 6.8086-3.2578 15.984 10.211 0 0 10.363 11.84 11.395 45.289 0 0 0 2.8125 1.6289 3.4062 0 0 4.8828 1.7773 9.6172-1.9219 0 0 1.1836-0.44531 1.1836-3.1055 0 0 0.44531-28.121-12.137-48.688 0 0-9.0273-15.391-25.453-13.617 0-0.007812-12.875 0.73047-23.086 16.566z"/>
  <path d="m257.61 376.59s5.0352 7.6914 8.0898 23.48l15.293-9.9648s-2.0703-14.984-7.4961-23.664z"/>
  <path d="m244.19 385.08s5.1289 10.262 7.1055 23.68l-30.391 18.941 186.27 16.574 136.55-105.77-162.6-11.445-85.641 53.676s-4.7344-18.152-8.2891-22.102l85.246-54.461 233.24 15.785-186.67 151.94-273.89-24.863z"/>
 </g>
</svg>
